G04 ================== begin FILE IDENTIFICATION RECORD ==================*
G04 Layout Name:  C:/Users/user/Desktop/work/»õ Æú´õ/allegro/CHOPPINGWAVE.brd*
G04 Film Name:    DrillDraw*
G04 File Format:  Gerber RS274X*
G04 File Origin:  Cadence Allegro 17.2-P019*
G04 Origin Date:  Wed Jul 31 12:36:12 2019*
G04 *
G04 Layer:  MANUFACTURING/NCLEGEND-1-2*
G04 Layer:  BOARD GEOMETRY/OUTLINE*
G04 Layer:  BOARD GEOMETRY/DIMENSION*
G04 Layer:  BOARD GEOMETRY/DESIGN_OUTLINE*
G04 *
G04 Offset:    (0.000 0.000)*
G04 Mirror:    No*
G04 Mode:      Positive*
G04 Rotation:  0*
G04 FullContactRelief:  No*
G04 UndefLineWidth:     0.200*
G04 ================== end FILE IDENTIFICATION RECORD ====================*
%FSLAX25Y25*MOMM*%
%IR0*IPPOS*OFA0.00000B0.00000*MIA0B0*SFA1.00000B1.00000*%
%AMMACRO12*
1,1,.2,-.508,.3175*
20,1,.2,-.508,.3175,-.500282,.405713,0.0*
1,1,.2,-.500282,.405713*
20,1,.2,-.500282,.405713,-.477364,.491246,0.0*
1,1,.2,-.477364,.491246*
20,1,.2,-.477364,.491246,-.439941,.5715,0.0*
1,1,.2,-.439941,.5715*
20,1,.2,-.439941,.5715,-.389151,.644036,0.0*
1,1,.2,-.389151,.644036*
20,1,.2,-.389151,.644036,-.326536,.706651,0.0*
1,1,.2,-.326536,.706651*
20,1,.2,-.326536,.706651,-.254,.757441,0.0*
1,1,.2,-.254,.757441*
20,1,.2,-.254,.757441,-.173746,.794864,0.0*
1,1,.2,-.173746,.794864*
20,1,.2,-.173746,.794864,-.088213,.817782,0.0*
1,1,.2,-.088213,.817782*
20,1,.2,-.088213,.817782,0.0,.8255,0.0*
1,1,.2,0.0,.8255*
20,1,.2,0.0,.8255,.088213,.817782,0.0*
1,1,.2,.088213,.817782*
20,1,.2,.088213,.817782,.173746,.794864,0.0*
1,1,.2,.173746,.794864*
20,1,.2,.173746,.794864,.254,.757441,0.0*
1,1,.2,.254,.757441*
20,1,.2,.254,.757441,.326536,.706651,0.0*
1,1,.2,.326536,.706651*
20,1,.2,.326536,.706651,.389151,.644036,0.0*
1,1,.2,.389151,.644036*
20,1,.2,.389151,.644036,.439941,.5715,0.0*
1,1,.2,.439941,.5715*
20,1,.2,.439941,.5715,.477364,.491246,0.0*
1,1,.2,.477364,.491246*
20,1,.2,.477364,.491246,.500282,.405713,0.0*
1,1,.2,.500282,.405713*
20,1,.2,.500282,.405713,.508,.3175,0.0*
1,1,.2,.508,.3175*
20,1,.2,.508,.3175,.508,-.3175,0.0*
1,1,.2,.508,-.3175*
20,1,.2,.508,-.3175,.500282,-.405713,0.0*
1,1,.2,.500282,-.405713*
20,1,.2,.500282,-.405713,.477364,-.491246,0.0*
1,1,.2,.477364,-.491246*
20,1,.2,.477364,-.491246,.439941,-.5715,0.0*
1,1,.2,.439941,-.5715*
20,1,.2,.439941,-.5715,.389151,-.644036,0.0*
1,1,.2,.389151,-.644036*
20,1,.2,.389151,-.644036,.326536,-.706651,0.0*
1,1,.2,.326536,-.706651*
20,1,.2,.326536,-.706651,.254,-.757441,0.0*
1,1,.2,.254,-.757441*
20,1,.2,.254,-.757441,.173746,-.794864,0.0*
1,1,.2,.173746,-.794864*
20,1,.2,.173746,-.794864,.088213,-.817782,0.0*
1,1,.2,.088213,-.817782*
20,1,.2,.088213,-.817782,0.0,-.8255,0.0*
1,1,.2,0.0,-.8255*
20,1,.2,0.0,-.8255,-.088213,-.817782,0.0*
1,1,.2,-.088213,-.817782*
20,1,.2,-.088213,-.817782,-.173746,-.794864,0.0*
1,1,.2,-.173746,-.794864*
20,1,.2,-.173746,-.794864,-.254,-.757441,0.0*
1,1,.2,-.254,-.757441*
20,1,.2,-.254,-.757441,-.326536,-.706651,0.0*
1,1,.2,-.326536,-.706651*
20,1,.2,-.326536,-.706651,-.389151,-.644036,0.0*
1,1,.2,-.389151,-.644036*
20,1,.2,-.389151,-.644036,-.439941,-.5715,0.0*
1,1,.2,-.439941,-.5715*
20,1,.2,-.439941,-.5715,-.477364,-.491246,0.0*
1,1,.2,-.477364,-.491246*
20,1,.2,-.477364,-.491246,-.500282,-.405713,0.0*
1,1,.2,-.500282,-.405713*
20,1,.2,-.500282,-.405713,-.508,-.3175,0.0*
1,1,.2,-.508,-.3175*
20,1,.2,-.508,-.3175,-.508,.3175,0.0*
1,1,.2,-.508,.3175*
%
%ADD12MACRO12*%
%AMMACRO11*
1,1,.2,.635,0.0*
20,1,.2,.635,0.0,.3175,.549926,0.0*
1,1,.2,.3175,.549926*
20,1,.2,.3175,.549926,-.3175,.549926,0.0*
1,1,.2,-.3175,.549926*
20,1,.2,-.3175,.549926,-.635,0.0,0.0*
1,1,.2,-.635,0.0*
20,1,.2,-.635,0.0,-.3175,-.549926,0.0*
1,1,.2,-.3175,-.549926*
20,1,.2,-.3175,-.549926,.3175,-.549926,0.0*
1,1,.2,.3175,-.549926*
20,1,.2,.3175,-.549926,.635,0.0,0.0*
1,1,.2,.635,0.0*
%
%ADD11MACRO11*%
%AMMACRO10*
1,1,.2,-.666,-.952*
20,1,.2,-.666,-.952,.667,.953,0.0*
1,1,.2,.667,.953*
1,1,.2,-.666,.953*
20,1,.2,-.666,.953,.667,-.952,0.0*
1,1,.2,.667,-.952*
%
%ADD10MACRO10*%
%ADD13C,.2*%
G75*
%LPD*%
G75*
G54D10*
X500000Y500000D03*
Y6500000D03*
X9500000Y500000D03*
Y6500000D03*
X12841500Y442500D03*
G54D11*
X500000Y2992000D03*
Y3246000D03*
Y3500000D03*
X1950000Y3000000D03*
Y3762000D03*
X2100000Y1838000D03*
Y2092000D03*
Y2346000D03*
Y2600000D03*
X2712000Y3000000D03*
X2458000D03*
X2204000D03*
X2712000Y3762000D03*
X2458000D03*
X2204000D03*
X2400000Y4654000D03*
Y4400000D03*
X2450000Y5654000D03*
Y5400000D03*
Y6254000D03*
Y6000000D03*
X2862000Y1838000D03*
Y2092000D03*
Y2346000D03*
Y2600000D03*
X3200000Y4096000D03*
Y4350000D03*
X4342000Y4200000D03*
X4850000D03*
X4596000Y4454000D03*
X4858000Y5450000D03*
X4604000Y5196000D03*
X4350000Y5450000D03*
X5350000Y3142000D03*
X5096000Y3396000D03*
X5350000Y3650000D03*
X7250000Y3188000D03*
Y3442000D03*
Y3696000D03*
Y3950000D03*
X7438000Y1438000D03*
X7692000D03*
X7946000D03*
X7438000Y2200000D03*
X7692000D03*
X7946000D03*
X8012000Y3188000D03*
Y3442000D03*
Y3696000D03*
Y3950000D03*
X8200000Y1438000D03*
Y2200000D03*
X9500000Y3754000D03*
Y3500000D03*
X12841500Y1712500D03*
G54D12*
X784000Y4950000D03*
Y4600000D03*
Y5300000D03*
Y5700000D03*
Y6050000D03*
X1800000Y4950000D03*
Y4600000D03*
Y5300000D03*
Y5700000D03*
Y6050000D03*
X2400000Y1350000D03*
X3416000D03*
X3384000Y3350000D03*
X3450000Y5134000D03*
Y6150000D03*
X3850000Y1350000D03*
X4866000D03*
X4400000Y3350000D03*
X5500000Y1350000D03*
X5200000Y2200000D03*
X5300000Y5200000D03*
X6516000Y1350000D03*
X6216000Y2200000D03*
X6316000Y5200000D03*
X6800000D03*
X7816000D03*
X12841500Y1077500D03*
G54D13*
G01X0Y0D02*
Y7000000D01*
X10000000D01*
Y0D01*
X0D01*
G01Y7250000D02*
Y8100000D01*
G01X4178900Y7850000D02*
X0D01*
G01X400000Y7912500D02*
X0Y7850000D01*
X400000Y7787500D01*
Y7912500D01*
G01X4535100Y7691200D02*
Y8008700D01*
X4487900Y7945200D01*
G01Y7691200D02*
X4582300D01*
G01X4850000Y8008700D02*
X4818500Y7998100D01*
X4794900Y7971700D01*
X4779100Y7939900D01*
X4767300Y7897600D01*
X4763400Y7849900D01*
X4767300Y7802300D01*
X4779100Y7760000D01*
X4794900Y7728200D01*
X4818500Y7701800D01*
X4850000Y7691200D01*
X4881500Y7701800D01*
X4905100Y7728200D01*
X4920900Y7760000D01*
X4932700Y7802300D01*
X4936600Y7849900D01*
X4932700Y7897600D01*
X4920900Y7939900D01*
X4905100Y7971700D01*
X4881500Y7998100D01*
X4850000Y8008700D01*
G01X5164900D02*
X5133400Y7998100D01*
X5109800Y7971700D01*
X5094000Y7939900D01*
X5082200Y7897600D01*
X5078300Y7849900D01*
X5082200Y7802300D01*
X5094000Y7760000D01*
X5109800Y7728200D01*
X5133400Y7701800D01*
X5164900Y7691200D01*
X5196400Y7701800D01*
X5220000Y7728200D01*
X5235800Y7760000D01*
X5247600Y7802300D01*
X5251500Y7849900D01*
X5247600Y7897600D01*
X5235800Y7939900D01*
X5220000Y7971700D01*
X5196400Y7998100D01*
X5164900Y8008700D01*
G01X5521100Y7850000D02*
X10000000D01*
G01Y7250000D02*
Y8100000D01*
G01X9600000Y7787500D02*
X10000000Y7850000D01*
X9600000Y7912500D01*
Y7787500D01*
G01X10250000Y0D02*
X11300000D01*
G01X10987500Y400000D02*
X11050000Y0D01*
X11112500Y400000D01*
X10987500D01*
G01X10884600Y3891200D02*
X10892500Y3960000D01*
X10904300Y4018200D01*
X10920100Y4071100D01*
X10939700Y4129300D01*
X10971200Y4208700D01*
X10813800D01*
G01X11207400D02*
X11175900Y4198100D01*
X11152300Y4171700D01*
X11136500Y4139900D01*
X11124700Y4097600D01*
X11120800Y4049900D01*
X11124700Y4002300D01*
X11136500Y3960000D01*
X11152300Y3928200D01*
X11175900Y3901800D01*
X11207400Y3891200D01*
X11238900Y3901800D01*
X11262500Y3928200D01*
X11278300Y3960000D01*
X11290100Y4002300D01*
X11294000Y4049900D01*
X11290100Y4097600D01*
X11278300Y4139900D01*
X11262500Y4171700D01*
X11238900Y4198100D01*
X11207400Y4208700D01*
G01X10250000Y7000000D02*
X11300000D01*
G01X11112500Y6600000D02*
X11050000Y7000000D01*
X10987500Y6600000D01*
X11112500D01*
G01X11700000Y125000D02*
Y3950000D01*
X24295900D01*
Y125000D01*
X11700000D01*
G01X11050000Y3653200D02*
Y0D01*
G01X11700000Y760000D02*
X24295900D01*
G01X11700000Y1395000D02*
X24295900D01*
G01X11700000Y2030000D02*
X24295900D01*
G01X11700000Y3300000D02*
X24295900D01*
G01X11700000Y2665000D02*
X24295900D01*
G01X11050000Y4446800D02*
Y7000000D01*
G01X11979400Y2188800D02*
Y2506300D01*
X12129000D01*
G01X12073900Y2352800D02*
X11979400D01*
G01X12321900Y2506300D02*
X12416300D01*
G01X12369100D02*
Y2188800D01*
G01X12321900D02*
X12416300D01*
G01X12707600Y2347500D02*
X12786400D01*
Y2252300D01*
X12762700Y2220500D01*
X12735200Y2199400D01*
X12695800Y2188800D01*
X12656400Y2199400D01*
X12628900Y2220500D01*
X12605300Y2252300D01*
X12589500Y2289300D01*
X12581600Y2331700D01*
Y2368700D01*
X12589500Y2400500D01*
X12605300Y2437500D01*
X12628900Y2469300D01*
X12652500Y2490400D01*
X12684000Y2506300D01*
X12711600D01*
X12743000Y2495700D01*
X12766700Y2474500D01*
G01X12912300Y2506300D02*
Y2278800D01*
X12928000Y2231100D01*
X12959500Y2199400D01*
X12998900Y2188800D01*
X13038300Y2199400D01*
X13069800Y2231100D01*
X13085500Y2278800D01*
Y2506300D01*
G01X13235100Y2188800D02*
Y2506300D01*
X13333500D01*
X13365000Y2490400D01*
X13384700Y2469300D01*
X13392500Y2426900D01*
X13384700Y2384600D01*
X13361000Y2358100D01*
X13333500Y2342300D01*
X13235100D01*
G01X13333500D02*
X13392500Y2188800D01*
G01X13707400D02*
X13550000D01*
Y2506300D01*
X13707400D01*
G01X13644400Y2352800D02*
X13550000D01*
G01X13983000Y2665000D02*
Y125000D01*
G01X13975100Y3473800D02*
Y3791300D01*
X14053800D01*
X14085300Y3775400D01*
X14108900Y3754300D01*
X14128600Y3722500D01*
X14144400Y3685500D01*
X14148300Y3632500D01*
X14144400Y3579600D01*
X14128600Y3542600D01*
X14108900Y3510800D01*
X14085300Y3489700D01*
X14053800Y3473800D01*
X13975100D01*
G01X14297900D02*
Y3791300D01*
X14396300D01*
X14427800Y3775400D01*
X14447500Y3754300D01*
X14455300Y3711900D01*
X14447500Y3669600D01*
X14423800Y3643100D01*
X14396300Y3627300D01*
X14297900D01*
G01X14396300D02*
X14455300Y3473800D01*
G01X14644300Y3791300D02*
X14738700D01*
G01X14691500D02*
Y3473800D01*
G01X14644300D02*
X14738700D01*
G01X14927700Y3791300D02*
Y3473800D01*
X15085100D01*
G01X15242600Y3791300D02*
Y3473800D01*
X15400000D01*
G01X16037700Y3764800D02*
X16014100Y3780700D01*
X15986500Y3791300D01*
X15955000D01*
X15919600Y3775400D01*
X15892100Y3749000D01*
X15872400Y3717200D01*
X15856600Y3664300D01*
X15852700Y3616700D01*
X15860600Y3569000D01*
X15872400Y3537300D01*
X15896000Y3505500D01*
X15923500Y3484400D01*
X15951100Y3473800D01*
X15978700D01*
X16006200Y3484400D01*
X16029800Y3500300D01*
X16049500Y3521400D01*
G01X16183300Y3473800D02*
Y3791300D01*
G01X16348700D02*
Y3473800D01*
G01Y3632500D02*
X16183300D01*
G01X16482500Y3473800D02*
X16580900Y3791300D01*
X16679300Y3473800D01*
G01X16643900Y3584900D02*
X16517900D01*
G01X16817100Y3473800D02*
Y3791300D01*
X16915500D01*
X16947000Y3775400D01*
X16966700Y3754300D01*
X16974500Y3711900D01*
X16966700Y3669600D01*
X16943000Y3643100D01*
X16915500Y3627300D01*
X16817100D01*
G01X16915500D02*
X16974500Y3473800D01*
G01X17210700Y3791300D02*
Y3473800D01*
G01X17120200Y3791300D02*
X17301200D01*
G01X17525600Y3463200D02*
X17517700Y3468500D01*
Y3479100D01*
X17525600Y3484400D01*
X17533500Y3479100D01*
Y3468500D01*
X17525600Y3463200D01*
G01Y3606100D02*
X17517700Y3611400D01*
Y3622000D01*
X17525600Y3627300D01*
X17533500Y3622000D01*
Y3611400D01*
X17525600Y3606100D01*
G01X18155400Y3791300D02*
Y3473800D01*
G01X18064900Y3791300D02*
X18245900D01*
G01X18470300Y3473800D02*
X18438800Y3479100D01*
X18411300Y3500300D01*
X18387600Y3532000D01*
X18371900Y3569000D01*
X18364000Y3611400D01*
Y3653700D01*
X18371900Y3696100D01*
X18387600Y3733100D01*
X18411300Y3764800D01*
X18438800Y3786000D01*
X18470300Y3791300D01*
X18501800Y3786000D01*
X18529300Y3764800D01*
X18553000Y3733100D01*
X18568700Y3696100D01*
X18576600Y3653700D01*
Y3611400D01*
X18568700Y3569000D01*
X18553000Y3532000D01*
X18529300Y3500300D01*
X18501800Y3479100D01*
X18470300Y3473800D01*
G01X18706500D02*
Y3791300D01*
X18800900D01*
X18832400Y3775400D01*
X18856100Y3738400D01*
X18863900Y3696100D01*
X18856100Y3653700D01*
X18836400Y3622000D01*
X18800900Y3606100D01*
X18706500D01*
G01X19415000Y3791300D02*
Y3473800D01*
G01X19359900Y3685500D02*
X19470100D01*
G01X19729900Y3473800D02*
X19706300Y3479100D01*
X19682700Y3500300D01*
X19666900Y3537300D01*
X19659000Y3579600D01*
X19666900Y3622000D01*
X19682700Y3659000D01*
X19706300Y3680200D01*
X19729900Y3685500D01*
X19753500Y3680200D01*
X19777100Y3659000D01*
X19792900Y3622000D01*
X19796800Y3579600D01*
X19792900Y3537300D01*
X19777100Y3500300D01*
X19753500Y3479100D01*
X19729900Y3473800D01*
G01X20391200Y3643100D02*
X20406900Y3659000D01*
X20418700Y3685500D01*
X20426600Y3722500D01*
X20418700Y3754300D01*
X20403000Y3775400D01*
X20375400Y3791300D01*
X20269200D01*
Y3473800D01*
X20399100D01*
X20426600Y3495000D01*
X20442400Y3526700D01*
X20450200Y3563800D01*
X20442400Y3600800D01*
X20418700Y3632500D01*
X20391200Y3643100D01*
X20269200D01*
G01X20674600Y3473800D02*
X20643100Y3479100D01*
X20615600Y3500300D01*
X20591900Y3532000D01*
X20576200Y3569000D01*
X20568300Y3611400D01*
Y3653700D01*
X20576200Y3696100D01*
X20591900Y3733100D01*
X20615600Y3764800D01*
X20643100Y3786000D01*
X20674600Y3791300D01*
X20706100Y3786000D01*
X20733600Y3764800D01*
X20757300Y3733100D01*
X20773000Y3696100D01*
X20780900Y3653700D01*
Y3611400D01*
X20773000Y3569000D01*
X20757300Y3532000D01*
X20733600Y3500300D01*
X20706100Y3479100D01*
X20674600Y3473800D01*
G01X20989500Y3791300D02*
Y3473800D01*
G01X20899000Y3791300D02*
X21080000D01*
G01X21304400D02*
Y3473800D01*
G01X21213900Y3791300D02*
X21394900D01*
G01X21619300Y3473800D02*
X21587800Y3479100D01*
X21560300Y3500300D01*
X21536600Y3532000D01*
X21520900Y3569000D01*
X21513000Y3611400D01*
Y3653700D01*
X21520900Y3696100D01*
X21536600Y3733100D01*
X21560300Y3764800D01*
X21587800Y3786000D01*
X21619300Y3791300D01*
X21650800Y3786000D01*
X21678300Y3764800D01*
X21702000Y3733100D01*
X21717700Y3696100D01*
X21725600Y3653700D01*
Y3611400D01*
X21717700Y3569000D01*
X21702000Y3532000D01*
X21678300Y3500300D01*
X21650800Y3479100D01*
X21619300Y3473800D01*
G01X21831800D02*
Y3791300D01*
X21934200Y3526700D01*
X22036600Y3791300D01*
Y3473800D01*
G01X13648400Y2823800D02*
X13746800Y3141300D01*
X13845200Y2823800D01*
G01X13809800Y2934900D02*
X13683800D01*
G01X13983000Y3141300D02*
Y2823800D01*
X14140400D01*
G01X14297900Y3141300D02*
Y2823800D01*
X14455300D01*
G01X14919800Y3141300D02*
Y2913800D01*
X14935500Y2866100D01*
X14967000Y2834400D01*
X15006400Y2823800D01*
X15045800Y2834400D01*
X15077300Y2866100D01*
X15093000Y2913800D01*
Y3141300D01*
G01X15230800Y2823800D02*
Y3141300D01*
X15411800Y2823800D01*
Y3141300D01*
G01X15589000D02*
X15683400D01*
G01X15636200D02*
Y2823800D01*
G01X15589000D02*
X15683400D01*
G01X15951100Y3141300D02*
Y2823800D01*
G01X15860600Y3141300D02*
X16041600D01*
G01X16183300Y2866100D02*
X16214800Y2839700D01*
X16250300Y2823800D01*
X16281700D01*
X16313200Y2839700D01*
X16336900Y2866100D01*
X16348700Y2903200D01*
X16340800Y2940200D01*
X16321100Y2972000D01*
X16285700Y2993100D01*
X16238400Y3003700D01*
X16210900Y3024900D01*
X16199100Y3061900D01*
X16207000Y3099000D01*
X16226600Y3125400D01*
X16254200Y3141300D01*
X16281700D01*
X16309300Y3130700D01*
X16332900Y3104300D01*
G01X16797400Y2823800D02*
X16895800Y3141300D01*
X16994200Y2823800D01*
G01X16958800Y2934900D02*
X16832800D01*
G01X17132000Y2823800D02*
Y3141300D01*
X17230400D01*
X17261900Y3125400D01*
X17281600Y3104300D01*
X17289400Y3061900D01*
X17281600Y3019600D01*
X17257900Y2993100D01*
X17230400Y2977300D01*
X17132000D01*
G01X17230400D02*
X17289400Y2823800D01*
G01X17604300D02*
X17446900D01*
Y3141300D01*
X17604300D01*
G01X17541300Y2987800D02*
X17446900D01*
G01X18108200Y3141300D02*
X18202600D01*
G01X18155400D02*
Y2823800D01*
G01X18108200D02*
X18202600D01*
G01X18379800D02*
Y3141300D01*
X18560800Y2823800D01*
Y3141300D01*
G01X18997700Y2823800D02*
Y3141300D01*
X19100100Y2876700D01*
X19202500Y3141300D01*
Y2823800D01*
G01X19367800Y3141300D02*
X19462200D01*
G01X19415000D02*
Y2823800D01*
G01X19367800D02*
X19462200D01*
G01X19651200Y3141300D02*
Y2823800D01*
X19808600D01*
G01X19966100Y3141300D02*
Y2823800D01*
X20123500D01*
G01X20312500Y3141300D02*
X20406900D01*
G01X20359700D02*
Y2823800D01*
G01X20312500D02*
X20406900D01*
G01X20572200D02*
Y3141300D01*
X20674600Y2876700D01*
X20777000Y3141300D01*
Y2823800D01*
G01X21068200D02*
X20910800D01*
Y3141300D01*
X21068200D01*
G01X21005200Y2987800D02*
X20910800D01*
G01X21304400Y3141300D02*
Y2823800D01*
G01X21213900Y3141300D02*
X21394900D01*
G01X21698000Y2823800D02*
X21540600D01*
Y3141300D01*
X21698000D01*
G01X21635000Y2987800D02*
X21540600D01*
G01X21855500Y2823800D02*
Y3141300D01*
X21953900D01*
X21985400Y3125400D01*
X22005100Y3104300D01*
X22012900Y3061900D01*
X22005100Y3019600D01*
X21981400Y2993100D01*
X21953900Y2977300D01*
X21855500D01*
G01X21953900D02*
X22012900Y2823800D01*
G01X22166400Y2866100D02*
X22197900Y2839700D01*
X22233400Y2823800D01*
X22264800D01*
X22296300Y2839700D01*
X22320000Y2866100D01*
X22331800Y2903200D01*
X22323900Y2940200D01*
X22304200Y2972000D01*
X22268800Y2993100D01*
X22221500Y3003700D01*
X22194000Y3024900D01*
X22182200Y3061900D01*
X22190100Y3099000D01*
X22209700Y3125400D01*
X22237300Y3141300D01*
X22264800D01*
X22292400Y3130700D01*
X22316000Y3104300D01*
G01X14577300Y2188800D02*
Y2506300D01*
X14726900D01*
G01X14671800Y2352800D02*
X14577300D01*
G01X14919800Y2506300D02*
X15014200D01*
G01X14967000D02*
Y2188800D01*
G01X14919800D02*
X15014200D01*
G01X15191400D02*
Y2506300D01*
X15372400Y2188800D01*
Y2506300D01*
G01X15549600D02*
X15644000D01*
G01X15596800D02*
Y2188800D01*
G01X15549600D02*
X15644000D01*
G01X15829000Y2231100D02*
X15860500Y2204700D01*
X15896000Y2188800D01*
X15927400D01*
X15958900Y2204700D01*
X15982600Y2231100D01*
X15994400Y2268200D01*
X15986500Y2305200D01*
X15966800Y2337000D01*
X15931400Y2358100D01*
X15884100Y2368700D01*
X15856600Y2389900D01*
X15844800Y2426900D01*
X15852700Y2464000D01*
X15872300Y2490400D01*
X15899900Y2506300D01*
X15927400D01*
X15955000Y2495700D01*
X15978600Y2469300D01*
G01X16143900Y2188800D02*
Y2506300D01*
G01X16309300D02*
Y2188800D01*
G01Y2347500D02*
X16143900D01*
G01X16620200Y2188800D02*
X16462800D01*
Y2506300D01*
X16620200D01*
G01X16557200Y2352800D02*
X16462800D01*
G01X16769800Y2188800D02*
Y2506300D01*
X16848500D01*
X16880000Y2490400D01*
X16903600Y2469300D01*
X16923300Y2437500D01*
X16939100Y2400500D01*
X16943000Y2347500D01*
X16939100Y2294600D01*
X16923300Y2257600D01*
X16903600Y2225800D01*
X16880000Y2204700D01*
X16848500Y2188800D01*
X16769800D01*
G01X17053200Y2083000D02*
X17289400D01*
G01X17403500Y2231100D02*
X17435000Y2204700D01*
X17470500Y2188800D01*
X17501900D01*
X17533400Y2204700D01*
X17557100Y2231100D01*
X17568900Y2268200D01*
X17561000Y2305200D01*
X17541300Y2337000D01*
X17505900Y2358100D01*
X17458600Y2368700D01*
X17431100Y2389900D01*
X17419300Y2426900D01*
X17427200Y2464000D01*
X17446800Y2490400D01*
X17474400Y2506300D01*
X17501900D01*
X17529500Y2495700D01*
X17553100Y2469300D01*
G01X17753900Y2506300D02*
X17848300D01*
G01X17801100D02*
Y2188800D01*
G01X17753900D02*
X17848300D01*
G01X18041200Y2506300D02*
X18190800D01*
X18041200Y2188800D01*
X18190800D01*
G01X18509600D02*
X18352200D01*
Y2506300D01*
X18509600D01*
G01X18446600Y2352800D02*
X18352200D01*
G01X15825100Y347200D02*
X15848700Y310200D01*
X15880200Y289000D01*
X15915600Y283700D01*
X15947100Y289000D01*
X15978600Y315400D01*
X15998300Y347200D01*
X16002200Y378900D01*
X15994400Y416000D01*
X15966800Y442400D01*
X15939300Y453000D01*
X15903800D01*
G01X15939300D02*
X15962900Y468900D01*
X15982600Y495400D01*
X15990400Y527100D01*
X15982600Y558900D01*
X15962900Y585300D01*
X15927400Y601200D01*
X15892000Y595900D01*
X15856600Y574700D01*
G01X16226600Y273100D02*
X16218700Y278400D01*
Y289000D01*
X16226600Y294300D01*
X16234500Y289000D01*
Y278400D01*
X16226600Y273100D01*
G01X16541500Y283700D02*
Y601200D01*
X16494300Y537700D01*
G01Y283700D02*
X16588700D01*
G01X16848500D02*
X16856400Y352500D01*
X16868200Y410700D01*
X16884000Y463600D01*
X16903600Y521800D01*
X16935100Y601200D01*
X16777700D01*
G01X17084700Y331300D02*
X17108300Y304900D01*
X17135900Y289000D01*
X17171300Y283700D01*
X17206700Y294300D01*
X17234300Y315400D01*
X17254000Y352500D01*
X17257900Y394800D01*
X17250000Y437200D01*
X17230300Y463600D01*
X17202800Y484800D01*
X17175200Y490100D01*
X17147700Y484800D01*
X17112300Y463600D01*
X17124100Y601200D01*
X17230300D01*
G01X15911700Y918700D02*
Y1236200D01*
X15864500Y1172700D01*
G01Y918700D02*
X15958900D01*
G01X16226600Y908100D02*
X16218700Y913400D01*
Y924000D01*
X16226600Y929300D01*
X16234500Y924000D01*
Y913400D01*
X16226600Y908100D01*
G01X16541500Y1236200D02*
X16510000Y1225600D01*
X16486400Y1199200D01*
X16470600Y1167400D01*
X16458800Y1125100D01*
X16454900Y1077400D01*
X16458800Y1029800D01*
X16470600Y987500D01*
X16486400Y955700D01*
X16510000Y929300D01*
X16541500Y918700D01*
X16573000Y929300D01*
X16596600Y955700D01*
X16612400Y987500D01*
X16624200Y1029800D01*
X16628100Y1077400D01*
X16624200Y1125100D01*
X16612400Y1167400D01*
X16596600Y1199200D01*
X16573000Y1225600D01*
X16541500Y1236200D01*
G01X16781600Y1051000D02*
X16809200Y1088000D01*
X16832800Y1109200D01*
X16864300Y1119800D01*
X16891800Y1109200D01*
X16911500Y1088000D01*
X16927300Y1056300D01*
X16931200Y1019200D01*
X16927300Y987500D01*
X16911500Y955700D01*
X16887900Y929300D01*
X16860300Y918700D01*
X16828800Y929300D01*
X16801300Y961000D01*
X16785500Y1008700D01*
X16781600Y1061600D01*
X16789500Y1130400D01*
X16801300Y1167400D01*
X16821000Y1204400D01*
X16848500Y1230900D01*
X16876100Y1236200D01*
X16903600Y1225600D01*
X16923300Y1199200D01*
G01X17163400Y918700D02*
X17171300Y987500D01*
X17183100Y1045700D01*
X17198900Y1098600D01*
X17218500Y1156800D01*
X17250000Y1236200D01*
X17092600D01*
G01X15911700Y1871200D02*
X15880200Y1860600D01*
X15856600Y1834200D01*
X15840800Y1802400D01*
X15829000Y1760100D01*
X15825100Y1712400D01*
X15829000Y1664800D01*
X15840800Y1622500D01*
X15856600Y1590700D01*
X15880200Y1564300D01*
X15911700Y1553700D01*
X15943200Y1564300D01*
X15966800Y1590700D01*
X15982600Y1622500D01*
X15994400Y1664800D01*
X15998300Y1712400D01*
X15994400Y1760100D01*
X15982600Y1802400D01*
X15966800Y1834200D01*
X15943200Y1860600D01*
X15911700Y1871200D01*
G01X16226600Y1543100D02*
X16218700Y1548400D01*
Y1559000D01*
X16226600Y1564300D01*
X16234500Y1559000D01*
Y1548400D01*
X16226600Y1543100D01*
G01X16474600Y1590700D02*
X16502100Y1564300D01*
X16533600Y1553700D01*
X16565100Y1564300D01*
X16592700Y1596000D01*
X16612400Y1643700D01*
X16620200Y1691300D01*
Y1749500D01*
X16612400Y1797100D01*
X16592700Y1839400D01*
X16569100Y1860600D01*
X16541500Y1871200D01*
X16510000Y1860600D01*
X16486400Y1839400D01*
X16470600Y1807700D01*
X16462800Y1765400D01*
X16470600Y1728300D01*
X16490300Y1691300D01*
X16513900Y1670100D01*
X16541500Y1664800D01*
X16573000Y1675400D01*
X16596600Y1701900D01*
X16620200Y1749500D01*
G01X16856400Y1553700D02*
Y1871200D01*
X16809200Y1807700D01*
G01Y1553700D02*
X16903600D01*
G01X17218500D02*
Y1871200D01*
X17072900Y1643700D01*
X17269700D01*
G01X19206300Y283700D02*
Y601200D01*
X19387300Y283700D01*
Y601200D01*
G01X19611700Y283700D02*
X19580200Y289000D01*
X19552700Y310200D01*
X19529000Y341900D01*
X19513300Y378900D01*
X19505400Y421300D01*
Y463600D01*
X19513300Y506000D01*
X19529000Y543000D01*
X19552700Y574700D01*
X19580200Y595900D01*
X19611700Y601200D01*
X19643200Y595900D01*
X19670700Y574700D01*
X19694400Y543000D01*
X19710100Y506000D01*
X19718000Y463600D01*
Y421300D01*
X19710100Y378900D01*
X19694400Y341900D01*
X19670700Y310200D01*
X19643200Y289000D01*
X19611700Y283700D01*
G01X19836100D02*
Y601200D01*
X20017100Y283700D01*
Y601200D01*
G01X20190300Y389500D02*
X20292700D01*
G01X20477700Y283700D02*
Y601200D01*
X20572100D01*
X20603600Y585300D01*
X20627300Y548300D01*
X20635100Y506000D01*
X20627300Y463600D01*
X20607600Y431900D01*
X20572100Y416000D01*
X20477700D01*
G01X20792600Y601200D02*
Y283700D01*
X20950000D01*
G01X21087800D02*
X21186200Y601200D01*
X21284600Y283700D01*
G01X21249200Y394800D02*
X21123200D01*
G01X21501100Y601200D02*
Y283700D01*
G01X21410600Y601200D02*
X21591600D01*
G01X21894700Y283700D02*
X21737300D01*
Y601200D01*
X21894700D01*
G01X21831700Y447700D02*
X21737300D01*
G01X22044300Y283700D02*
Y601200D01*
X22123000D01*
X22154500Y585300D01*
X22178100Y564200D01*
X22197800Y532400D01*
X22213600Y495400D01*
X22217500Y442400D01*
X22213600Y389500D01*
X22197800Y352500D01*
X22178100Y320700D01*
X22154500Y299600D01*
X22123000Y283700D01*
X22044300D01*
G01X19100100Y2665000D02*
Y125000D01*
G01X19847900Y918700D02*
Y1236200D01*
X19942300D01*
X19973800Y1220300D01*
X19997500Y1183300D01*
X20005300Y1141000D01*
X19997500Y1098600D01*
X19977800Y1066900D01*
X19942300Y1051000D01*
X19847900D01*
G01X20162800Y1236200D02*
Y918700D01*
X20320200D01*
G01X20458000D02*
X20556400Y1236200D01*
X20654800Y918700D01*
G01X20619400Y1029800D02*
X20493400D01*
G01X20871300Y1236200D02*
Y918700D01*
G01X20780800Y1236200D02*
X20961800D01*
G01X21264900Y918700D02*
X21107500D01*
Y1236200D01*
X21264900D01*
G01X21201900Y1082700D02*
X21107500D01*
G01X21414500Y918700D02*
Y1236200D01*
X21493200D01*
X21524700Y1220300D01*
X21548300Y1199200D01*
X21568000Y1167400D01*
X21583800Y1130400D01*
X21587700Y1077400D01*
X21583800Y1024500D01*
X21568000Y987500D01*
X21548300Y955700D01*
X21524700Y934600D01*
X21493200Y918700D01*
X21414500D01*
G01X19847900Y1553700D02*
Y1871200D01*
X19942300D01*
X19973800Y1855300D01*
X19997500Y1818300D01*
X20005300Y1776000D01*
X19997500Y1733600D01*
X19977800Y1701900D01*
X19942300Y1686000D01*
X19847900D01*
G01X20162800Y1871200D02*
Y1553700D01*
X20320200D01*
G01X20458000D02*
X20556400Y1871200D01*
X20654800Y1553700D01*
G01X20619400Y1664800D02*
X20493400D01*
G01X20871300Y1871200D02*
Y1553700D01*
G01X20780800Y1871200D02*
X20961800D01*
G01X21264900Y1553700D02*
X21107500D01*
Y1871200D01*
X21264900D01*
G01X21201900Y1717700D02*
X21107500D01*
G01X21414500Y1553700D02*
Y1871200D01*
X21493200D01*
X21524700Y1855300D01*
X21548300Y1834200D01*
X21568000Y1802400D01*
X21583800Y1765400D01*
X21587700Y1712400D01*
X21583800Y1659500D01*
X21568000Y1622500D01*
X21548300Y1590700D01*
X21524700Y1569600D01*
X21493200Y1553700D01*
X21414500D01*
G01X19847900Y2188800D02*
Y2506300D01*
X19942300D01*
X19973800Y2490400D01*
X19997500Y2453400D01*
X20005300Y2411100D01*
X19997500Y2368700D01*
X19977800Y2337000D01*
X19942300Y2321100D01*
X19847900D01*
G01X20162800Y2506300D02*
Y2188800D01*
X20320200D01*
G01X20458000D02*
X20556400Y2506300D01*
X20654800Y2188800D01*
G01X20619400Y2299900D02*
X20493400D01*
G01X20871300Y2506300D02*
Y2188800D01*
G01X20780800Y2506300D02*
X20961800D01*
G01X21264900Y2188800D02*
X21107500D01*
Y2506300D01*
X21264900D01*
G01X21201900Y2352800D02*
X21107500D01*
G01X21414500Y2188800D02*
Y2506300D01*
X21493200D01*
X21524700Y2490400D01*
X21548300Y2469300D01*
X21568000Y2437500D01*
X21583800Y2400500D01*
X21587700Y2347500D01*
X21583800Y2294600D01*
X21568000Y2257600D01*
X21548300Y2225800D01*
X21524700Y2204700D01*
X21493200Y2188800D01*
X21414500D01*
G01X22327800Y2665000D02*
Y125000D01*
G01X23359000Y283700D02*
Y601200D01*
X23213400Y373700D01*
X23410200D01*
G01X23079500Y1183300D02*
X23103100Y1215000D01*
X23130700Y1230900D01*
X23162200Y1236200D01*
X23201500Y1225600D01*
X23229100Y1199200D01*
X23237000Y1167400D01*
X23233000Y1135700D01*
X23217300Y1109200D01*
X23138600Y1056300D01*
X23103100Y1019200D01*
X23079500Y966300D01*
X23071600Y918700D01*
X23237000D01*
G01X23394400Y1051000D02*
X23422000Y1088000D01*
X23445600Y1109200D01*
X23477100Y1119800D01*
X23504600Y1109200D01*
X23524300Y1088000D01*
X23540100Y1056300D01*
X23544000Y1019200D01*
X23540100Y987500D01*
X23524300Y955700D01*
X23500700Y929300D01*
X23473100Y918700D01*
X23441600Y929300D01*
X23414100Y961000D01*
X23398300Y1008700D01*
X23394400Y1061600D01*
X23402300Y1130400D01*
X23414100Y1167400D01*
X23433800Y1204400D01*
X23461300Y1230900D01*
X23488900Y1236200D01*
X23516400Y1225600D01*
X23536100Y1199200D01*
G01X23067700Y1601300D02*
X23091300Y1574900D01*
X23118900Y1559000D01*
X23154300Y1553700D01*
X23189700Y1564300D01*
X23217300Y1585400D01*
X23237000Y1622500D01*
X23240900Y1664800D01*
X23233000Y1707200D01*
X23213300Y1733600D01*
X23185800Y1754800D01*
X23158200Y1760100D01*
X23130700Y1754800D01*
X23095300Y1733600D01*
X23107100Y1871200D01*
X23213300D01*
G01X23516400Y1553700D02*
Y1871200D01*
X23370800Y1643700D01*
X23567600D01*
G01X22996900Y2188800D02*
X22965400Y2194100D01*
X22937900Y2215300D01*
X22914200Y2247000D01*
X22898500Y2284000D01*
X22890600Y2326400D01*
Y2368700D01*
X22898500Y2411100D01*
X22914200Y2448100D01*
X22937900Y2479800D01*
X22965400Y2501000D01*
X22996900Y2506300D01*
X23028400Y2501000D01*
X23055900Y2479800D01*
X23079600Y2448100D01*
X23095300Y2411100D01*
X23103200Y2368700D01*
Y2326400D01*
X23095300Y2284000D01*
X23079600Y2247000D01*
X23055900Y2215300D01*
X23028400Y2194100D01*
X22996900Y2188800D01*
G01X23028400Y2273500D02*
X23075600Y2188800D01*
G01X23311800Y2506300D02*
Y2188800D01*
G01X23221300Y2506300D02*
X23402300D01*
G01X23626700Y2188800D02*
Y2331700D01*
X23548000Y2506300D01*
G01X23705400D02*
X23626700Y2331700D01*
M02*
