G04 ================== begin FILE IDENTIFICATION RECORD ==================*
G04 Layout Name:  C:/Users/user/Desktop/work/»õ Æú´õ/allegro/CHOPPINGWAVE.brd*
G04 Film Name:    SilkT*
G04 File Format:  Gerber RS274X*
G04 File Origin:  Cadence Allegro 17.2-P019*
G04 Origin Date:  Wed Jul 31 12:36:12 2019*
G04 *
G04 Layer:  REF DES/SILKSCREEN_TOP*
G04 Layer:  PACKAGE GEOMETRY/SILKSCREEN_TOP*
G04 Layer:  BOARD GEOMETRY/SILKSCREEN_TOP*
G04 *
G04 Offset:    (0.000 0.000)*
G04 Mirror:    No*
G04 Mode:      Positive*
G04 Rotation:  0*
G04 FullContactRelief:  No*
G04 UndefLineWidth:     0.200*
G04 ================== end FILE IDENTIFICATION RECORD ====================*
%FSLAX25Y25*MOMM*%
%IR0*IPPOS*OFA0.00000B0.00000*MIA0B0*SFA1.00000B1.00000*%
%ADD10C,.2*%
G75*
%LPD*%
G75*
G54D10*
G01X373000Y3627000D02*
X627000D01*
Y2865000D01*
X373000D01*
Y3627000D01*
G01X403100Y3475400D02*
X411100Y3462700D01*
X420800Y3454200D01*
X432000Y3450000D01*
X444900Y3454200D01*
X454600Y3462700D01*
X464200Y3475400D01*
X467400Y3492300D01*
Y3577000D01*
G01X564700Y3450000D02*
Y3577000D01*
X545400Y3551600D01*
G01Y3450000D02*
X584000D01*
G01X1003100Y4900000D02*
Y5027000D01*
X1043300D01*
X1056200Y5020600D01*
X1064200Y5012200D01*
X1067400Y4995200D01*
X1064200Y4978300D01*
X1054600Y4967700D01*
X1043300Y4961400D01*
X1003100D01*
G01X1043300D02*
X1067400Y4900000D01*
G01X1129400Y4919000D02*
X1139000Y4908500D01*
X1150300Y4902100D01*
X1164700Y4900000D01*
X1179200Y4904200D01*
X1190500Y4912700D01*
X1198500Y4927500D01*
X1200100Y4944400D01*
X1196900Y4961400D01*
X1188900Y4972000D01*
X1177600Y4980400D01*
X1166400Y4982500D01*
X1155100Y4980400D01*
X1140600Y4972000D01*
X1145400Y5027000D01*
X1188900D01*
G01X1647600Y4823000D02*
X936400D01*
Y5077000D01*
X1647600D01*
Y4823000D01*
G01X1003100Y4550000D02*
Y4677000D01*
X1043300D01*
X1056200Y4670600D01*
X1064200Y4662200D01*
X1067400Y4645200D01*
X1064200Y4628300D01*
X1054600Y4617700D01*
X1043300Y4611400D01*
X1003100D01*
G01X1043300D02*
X1067400Y4550000D01*
G01X1137400Y4564800D02*
X1148700Y4554200D01*
X1161500Y4550000D01*
X1174400Y4554200D01*
X1185700Y4566900D01*
X1193700Y4586000D01*
X1196900Y4605000D01*
Y4628300D01*
X1193700Y4647400D01*
X1185700Y4664300D01*
X1176000Y4672800D01*
X1164700Y4677000D01*
X1151900Y4672800D01*
X1142200Y4664300D01*
X1135800Y4651600D01*
X1132600Y4634700D01*
X1135800Y4619900D01*
X1143800Y4605000D01*
X1153500Y4596600D01*
X1164700Y4594400D01*
X1177600Y4598700D01*
X1187300Y4609300D01*
X1196900Y4628300D01*
G01X1647600Y4473000D02*
X936400D01*
Y4727000D01*
X1647600D01*
Y4473000D01*
G01X1003100Y5250000D02*
Y5377000D01*
X1043300D01*
X1056200Y5370600D01*
X1064200Y5362200D01*
X1067400Y5345200D01*
X1064200Y5328300D01*
X1054600Y5317700D01*
X1043300Y5311400D01*
X1003100D01*
G01X1043300D02*
X1067400Y5250000D01*
G01X1134200Y5302900D02*
X1145400Y5317700D01*
X1155100Y5326200D01*
X1168000Y5330400D01*
X1179200Y5326200D01*
X1187300Y5317700D01*
X1193700Y5305000D01*
X1195300Y5290200D01*
X1193700Y5277500D01*
X1187300Y5264800D01*
X1177600Y5254200D01*
X1166400Y5250000D01*
X1153500Y5254200D01*
X1142200Y5266900D01*
X1135800Y5286000D01*
X1134200Y5307100D01*
X1137400Y5334700D01*
X1142200Y5349500D01*
X1150300Y5364300D01*
X1161500Y5374900D01*
X1172800Y5377000D01*
X1184100Y5372800D01*
X1192100Y5362200D01*
G01X1647600Y5173000D02*
X936400D01*
Y5427000D01*
X1647600D01*
Y5173000D01*
G01X1003100Y5650000D02*
Y5777000D01*
X1043300D01*
X1056200Y5770600D01*
X1064200Y5762200D01*
X1067400Y5745200D01*
X1064200Y5728300D01*
X1054600Y5717700D01*
X1043300Y5711400D01*
X1003100D01*
G01X1043300D02*
X1067400Y5650000D01*
G01X1161500D02*
X1164700Y5677500D01*
X1169600Y5700800D01*
X1176000Y5722000D01*
X1184100Y5745200D01*
X1196900Y5777000D01*
X1132600D01*
G01X1647600Y5573000D02*
X936400D01*
Y5827000D01*
X1647600D01*
Y5573000D01*
G01X1003100Y6000000D02*
Y6127000D01*
X1043300D01*
X1056200Y6120600D01*
X1064200Y6112200D01*
X1067400Y6095200D01*
X1064200Y6078300D01*
X1054600Y6067700D01*
X1043300Y6061400D01*
X1003100D01*
G01X1043300D02*
X1067400Y6000000D01*
G01X1164700D02*
X1176000Y6002100D01*
X1188900Y6008500D01*
X1196900Y6019000D01*
X1200100Y6033900D01*
X1196900Y6048700D01*
X1187300Y6061400D01*
X1172800Y6067700D01*
X1156700D01*
X1147100Y6072000D01*
X1139000Y6082500D01*
X1135800Y6097400D01*
X1140600Y6112200D01*
X1151900Y6122800D01*
X1164700Y6127000D01*
X1177600Y6122800D01*
X1188900Y6112200D01*
X1193700Y6097400D01*
X1190500Y6082500D01*
X1182400Y6072000D01*
X1172800Y6067700D01*
X1156700D01*
X1142200Y6061400D01*
X1132600Y6048700D01*
X1129400Y6033900D01*
X1132600Y6019000D01*
X1140600Y6008500D01*
X1153500Y6002100D01*
X1164700Y6000000D01*
G01X1647600Y5923000D02*
X936400D01*
Y6177000D01*
X1647600D01*
Y5923000D01*
G01X1823000Y3101600D02*
Y3254000D01*
X1886500Y3317500D01*
Y3444500D01*
X1823000Y3508000D01*
Y3660400D01*
X2839000D01*
Y3101600D01*
X1823000D01*
G01X2201600Y2727000D02*
X2354000D01*
X2417500Y2663500D01*
X2544500D01*
X2608000Y2727000D01*
X2760400D01*
Y1711000D01*
X2201600D01*
Y2727000D01*
G01X2588300Y1300000D02*
Y1427000D01*
X2628500D01*
X2641400Y1420600D01*
X2649400Y1412200D01*
X2652600Y1395200D01*
X2649400Y1378300D01*
X2639800Y1367700D01*
X2628500Y1361400D01*
X2588300D01*
G01X2628500D02*
X2652600Y1300000D01*
G01X2749900D02*
Y1427000D01*
X2730600Y1401600D01*
G01Y1300000D02*
X2769200D01*
G01X2879400Y1427000D02*
X2866600Y1422800D01*
X2856900Y1412200D01*
X2850500Y1399500D01*
X2845700Y1382500D01*
X2844100Y1363500D01*
X2845700Y1344400D01*
X2850500Y1327500D01*
X2856900Y1314800D01*
X2866600Y1304200D01*
X2879400Y1300000D01*
X2892300Y1304200D01*
X2902000Y1314800D01*
X2908400Y1327500D01*
X2913200Y1344400D01*
X2914800Y1363500D01*
X2913200Y1382500D01*
X2908400Y1399500D01*
X2902000Y1412200D01*
X2892300Y1422800D01*
X2879400Y1427000D01*
G01X2552400Y1477000D02*
X3263600D01*
Y1223000D01*
X2552400D01*
Y1477000D01*
G01X2349900Y2627000D02*
Y2536000D01*
X2356300Y2516900D01*
X2369200Y2504200D01*
X2385200Y2500000D01*
X2401300Y2504200D01*
X2414200Y2516900D01*
X2420600Y2536000D01*
Y2627000D01*
G01X2479400Y2525400D02*
X2489000Y2510600D01*
X2501900Y2502100D01*
X2516400Y2500000D01*
X2529200Y2502100D01*
X2542100Y2512700D01*
X2550100Y2525400D01*
X2551700Y2538100D01*
X2548500Y2552900D01*
X2537300Y2563500D01*
X2526000Y2567700D01*
X2511500D01*
G01X2526000D02*
X2535700Y2574100D01*
X2543700Y2584700D01*
X2546900Y2597400D01*
X2543700Y2610100D01*
X2535700Y2620600D01*
X2521200Y2627000D01*
X2506700Y2624900D01*
X2492200Y2616400D01*
G01X1949900Y3627000D02*
Y3536000D01*
X1956300Y3516900D01*
X1969200Y3504200D01*
X1985200Y3500000D01*
X2001300Y3504200D01*
X2014200Y3516900D01*
X2020600Y3536000D01*
Y3627000D01*
G01X2114700Y3500000D02*
Y3627000D01*
X2095400Y3601600D01*
G01Y3500000D02*
X2134000D01*
G01X2370600Y4666400D02*
X2361000Y4672800D01*
X2349700Y4677000D01*
X2336900D01*
X2322400Y4670600D01*
X2311100Y4660100D01*
X2303100Y4647400D01*
X2296600Y4626200D01*
X2295000Y4607100D01*
X2298300Y4588100D01*
X2303100Y4575400D01*
X2312700Y4562700D01*
X2324000Y4554200D01*
X2335200Y4550000D01*
X2346500D01*
X2357800Y4554200D01*
X2367400Y4560600D01*
X2375500Y4569000D01*
G01X2434200Y4655800D02*
X2443800Y4668500D01*
X2455100Y4674900D01*
X2468000Y4677000D01*
X2484100Y4672800D01*
X2495300Y4662200D01*
X2498500Y4649500D01*
X2496900Y4636800D01*
X2490500Y4626200D01*
X2458300Y4605000D01*
X2443800Y4590200D01*
X2434200Y4569000D01*
X2431000Y4550000D01*
X2498500D01*
G01X2654000Y4527000D02*
G03I-254000J0D01*
G01X2420600Y5666400D02*
X2411000Y5672800D01*
X2399700Y5677000D01*
X2386900D01*
X2372400Y5670600D01*
X2361100Y5660100D01*
X2353100Y5647400D01*
X2346600Y5626200D01*
X2345000Y5607100D01*
X2348300Y5588100D01*
X2353100Y5575400D01*
X2362700Y5562700D01*
X2374000Y5554200D01*
X2385200Y5550000D01*
X2396500D01*
X2407800Y5554200D01*
X2417400Y5560600D01*
X2425500Y5569000D01*
G01X2479400Y5575400D02*
X2489000Y5560600D01*
X2501900Y5552100D01*
X2516400Y5550000D01*
X2529200Y5552100D01*
X2542100Y5562700D01*
X2550100Y5575400D01*
X2551700Y5588100D01*
X2548500Y5602900D01*
X2537300Y5613500D01*
X2526000Y5617700D01*
X2511500D01*
G01X2526000D02*
X2535700Y5624100D01*
X2543700Y5634700D01*
X2546900Y5647400D01*
X2543700Y5660100D01*
X2535700Y5670600D01*
X2521200Y5677000D01*
X2506700Y5674900D01*
X2492200Y5666400D01*
G01X2704000Y5527000D02*
G03I-254000J0D01*
G01X2420600Y6266400D02*
X2411000Y6272800D01*
X2399700Y6277000D01*
X2386900D01*
X2372400Y6270600D01*
X2361100Y6260100D01*
X2353100Y6247400D01*
X2346600Y6226200D01*
X2345000Y6207100D01*
X2348300Y6188100D01*
X2353100Y6175400D01*
X2362700Y6162700D01*
X2374000Y6154200D01*
X2385200Y6150000D01*
X2396500D01*
X2407800Y6154200D01*
X2417400Y6160600D01*
X2425500Y6169000D01*
G01X2534100Y6150000D02*
Y6277000D01*
X2474500Y6186000D01*
X2555000D01*
G01X2704000Y6127000D02*
G03I-254000J0D01*
G01X3454000Y4223000D02*
G03I-254000J0D01*
G01X3170600Y4366400D02*
X3161000Y4372800D01*
X3149700Y4377000D01*
X3136900D01*
X3122400Y4370600D01*
X3111100Y4360100D01*
X3103100Y4347400D01*
X3096600Y4326200D01*
X3095000Y4307100D01*
X3098300Y4288100D01*
X3103100Y4275400D01*
X3112700Y4262700D01*
X3124000Y4254200D01*
X3135200Y4250000D01*
X3146500D01*
X3157800Y4254200D01*
X3167400Y4260600D01*
X3175500Y4269000D01*
G01X3264700Y4250000D02*
Y4377000D01*
X3245400Y4351600D01*
G01Y4250000D02*
X3284000D01*
G01X3577000Y5997600D02*
Y5286400D01*
X3323000D01*
Y5997600D01*
X3577000D01*
G01X3353100Y5800000D02*
Y5927000D01*
X3393300D01*
X3406200Y5920600D01*
X3414200Y5912200D01*
X3417400Y5895200D01*
X3414200Y5878300D01*
X3404600Y5867700D01*
X3393300Y5861400D01*
X3353100D01*
G01X3393300D02*
X3417400Y5800000D01*
G01X3479400Y5825400D02*
X3489000Y5810600D01*
X3501900Y5802100D01*
X3516400Y5800000D01*
X3529200Y5802100D01*
X3542100Y5812700D01*
X3550100Y5825400D01*
X3551700Y5838100D01*
X3548500Y5852900D01*
X3537300Y5863500D01*
X3526000Y5867700D01*
X3511500D01*
G01X3526000D02*
X3535700Y5874100D01*
X3543700Y5884700D01*
X3546900Y5897400D01*
X3543700Y5910100D01*
X3535700Y5920600D01*
X3521200Y5927000D01*
X3506700Y5924900D01*
X3492200Y5916400D01*
G01X4038300Y1300000D02*
Y1427000D01*
X4078500D01*
X4091400Y1420600D01*
X4099400Y1412200D01*
X4102600Y1395200D01*
X4099400Y1378300D01*
X4089800Y1367700D01*
X4078500Y1361400D01*
X4038300D01*
G01X4078500D02*
X4102600Y1300000D01*
G01X4199900D02*
Y1427000D01*
X4180600Y1401600D01*
G01Y1300000D02*
X4219200D01*
G01X4298900Y1405800D02*
X4308500Y1418500D01*
X4319800Y1424900D01*
X4332700Y1427000D01*
X4348800Y1422800D01*
X4360000Y1412200D01*
X4363200Y1399500D01*
X4361600Y1386800D01*
X4355200Y1376200D01*
X4323000Y1355000D01*
X4308500Y1340200D01*
X4298900Y1319000D01*
X4295700Y1300000D01*
X4363200D01*
G01X4002400Y1477000D02*
X4713600D01*
Y1223000D01*
X4002400D01*
Y1477000D01*
G01X3603100Y3300000D02*
Y3427000D01*
X3643300D01*
X3656200Y3420600D01*
X3664200Y3412200D01*
X3667400Y3395200D01*
X3664200Y3378300D01*
X3654600Y3367700D01*
X3643300Y3361400D01*
X3603100D01*
G01X3643300D02*
X3667400Y3300000D01*
G01X3734200Y3405800D02*
X3743800Y3418500D01*
X3755100Y3424900D01*
X3768000Y3427000D01*
X3784100Y3422800D01*
X3795300Y3412200D01*
X3798500Y3399500D01*
X3796900Y3386800D01*
X3790500Y3376200D01*
X3758300Y3355000D01*
X3743800Y3340200D01*
X3734200Y3319000D01*
X3731000Y3300000D01*
X3798500D01*
G01X4247600Y3223000D02*
X3536400D01*
Y3477000D01*
X4247600D01*
Y3223000D01*
G01X4278500Y4581000D02*
X4913500D01*
Y4073000D01*
X4278500D01*
Y4581000D01*
G01X4330200Y4527000D02*
X4370400Y4400000D01*
X4410700Y4527000D01*
G01X4467800Y4400000D02*
Y4527000D01*
X4508000D01*
X4520900Y4520600D01*
X4528900Y4512200D01*
X4532100Y4495200D01*
X4528900Y4478300D01*
X4519300Y4467700D01*
X4508000Y4461400D01*
X4467800D01*
G01X4508000D02*
X4532100Y4400000D01*
G01X4629400D02*
Y4527000D01*
X4610100Y4501600D01*
G01Y4400000D02*
X4648700D01*
G01X4330200Y5527000D02*
X4370400Y5400000D01*
X4410700Y5527000D01*
G01X4467800Y5400000D02*
Y5527000D01*
X4508000D01*
X4520900Y5520600D01*
X4528900Y5512200D01*
X4532100Y5495200D01*
X4528900Y5478300D01*
X4519300Y5467700D01*
X4508000Y5461400D01*
X4467800D01*
G01X4508000D02*
X4532100Y5400000D01*
G01X4598900Y5505800D02*
X4608500Y5518500D01*
X4619800Y5524900D01*
X4632700Y5527000D01*
X4648800Y5522800D01*
X4660000Y5512200D01*
X4663200Y5499500D01*
X4661600Y5486800D01*
X4655200Y5476200D01*
X4623000Y5455000D01*
X4608500Y5440200D01*
X4598900Y5419000D01*
X4595700Y5400000D01*
X4663200D01*
G01X4921500Y5069000D02*
X4286500D01*
Y5577000D01*
X4921500D01*
Y5069000D01*
G01X5652400Y1477000D02*
X6363600D01*
Y1223000D01*
X5652400D01*
Y1477000D01*
G01X5388300Y2150000D02*
Y2277000D01*
X5428500D01*
X5441400Y2270600D01*
X5449400Y2262200D01*
X5452600Y2245200D01*
X5449400Y2228300D01*
X5439800Y2217700D01*
X5428500Y2211400D01*
X5388300D01*
G01X5428500D02*
X5452600Y2150000D01*
G01X5549900D02*
Y2277000D01*
X5530600Y2251600D01*
G01Y2150000D02*
X5569200D01*
G01X5644100Y2175400D02*
X5653700Y2160600D01*
X5666600Y2152100D01*
X5681100Y2150000D01*
X5693900Y2152100D01*
X5706800Y2162700D01*
X5714800Y2175400D01*
X5716400Y2188100D01*
X5713200Y2202900D01*
X5702000Y2213500D01*
X5690700Y2217700D01*
X5676200D01*
G01X5690700D02*
X5700400Y2224100D01*
X5708400Y2234700D01*
X5711600Y2247400D01*
X5708400Y2260100D01*
X5700400Y2270600D01*
X5685900Y2277000D01*
X5671400Y2274900D01*
X5656900Y2266400D01*
G01X5352400Y2327000D02*
X6063600D01*
Y2073000D01*
X5352400D01*
Y2327000D01*
G01X4969000Y3078500D02*
Y3713500D01*
X5477000D01*
Y3078500D01*
X4969000D01*
G01X5030200Y3627000D02*
X5070400Y3500000D01*
X5110700Y3627000D01*
G01X5167800Y3500000D02*
Y3627000D01*
X5208000D01*
X5220900Y3620600D01*
X5228900Y3612200D01*
X5232100Y3595200D01*
X5228900Y3578300D01*
X5219300Y3567700D01*
X5208000Y3561400D01*
X5167800D01*
G01X5208000D02*
X5232100Y3500000D01*
G01X5294100Y3525400D02*
X5303700Y3510600D01*
X5316600Y3502100D01*
X5331100Y3500000D01*
X5343900Y3502100D01*
X5356800Y3512700D01*
X5364800Y3525400D01*
X5366400Y3538100D01*
X5363200Y3552900D01*
X5352000Y3563500D01*
X5340700Y3567700D01*
X5326200D01*
G01X5340700D02*
X5350400Y3574100D01*
X5358400Y3584700D01*
X5361600Y3597400D01*
X5358400Y3610100D01*
X5350400Y3620600D01*
X5335900Y3627000D01*
X5321400Y3624900D01*
X5306900Y3616400D01*
G01X5553100Y5150000D02*
Y5277000D01*
X5593300D01*
X5606200Y5270600D01*
X5614200Y5262200D01*
X5617400Y5245200D01*
X5614200Y5228300D01*
X5604600Y5217700D01*
X5593300Y5211400D01*
X5553100D01*
G01X5593300D02*
X5617400Y5150000D01*
G01X5734100D02*
Y5277000D01*
X5674500Y5186000D01*
X5755000D01*
G01X5452400Y5327000D02*
X6163600D01*
Y5073000D01*
X5452400D01*
Y5327000D01*
G01X5688300Y1300000D02*
Y1427000D01*
X5728500D01*
X5741400Y1420600D01*
X5749400Y1412200D01*
X5752600Y1395200D01*
X5749400Y1378300D01*
X5739800Y1367700D01*
X5728500Y1361400D01*
X5688300D01*
G01X5728500D02*
X5752600Y1300000D01*
G01X5849900D02*
Y1427000D01*
X5830600Y1401600D01*
G01Y1300000D02*
X5869200D01*
G01X5979400D02*
Y1427000D01*
X5960100Y1401600D01*
G01Y1300000D02*
X5998700D01*
G01X7003100Y5150000D02*
Y5277000D01*
X7043300D01*
X7056200Y5270600D01*
X7064200Y5262200D01*
X7067400Y5245200D01*
X7064200Y5228300D01*
X7054600Y5217700D01*
X7043300Y5211400D01*
X7003100D01*
G01X7043300D02*
X7067400Y5150000D01*
G01X7164700D02*
Y5277000D01*
X7145400Y5251600D01*
G01Y5150000D02*
X7184000D01*
G01X6952400Y5327000D02*
X7663600D01*
Y5073000D01*
X6952400D01*
Y5327000D01*
G01X7399900Y2027000D02*
Y1936000D01*
X7406300Y1916900D01*
X7419200Y1904200D01*
X7435200Y1900000D01*
X7451300Y1904200D01*
X7464200Y1916900D01*
X7470600Y1936000D01*
Y2027000D01*
G01X7584100Y1900000D02*
Y2027000D01*
X7524500Y1936000D01*
X7605000D01*
G01X8327000Y2098400D02*
Y1946000D01*
X8263500Y1882500D01*
Y1755500D01*
X8327000Y1692000D01*
Y1539600D01*
X7311000D01*
Y2098400D01*
X8327000D01*
G01X7351600Y4077000D02*
X7504000D01*
X7567500Y4013500D01*
X7694500D01*
X7758000Y4077000D01*
X7910400D01*
Y3061000D01*
X7351600D01*
Y4077000D01*
G01X7499900Y3977000D02*
Y3886000D01*
X7506300Y3866900D01*
X7519200Y3854200D01*
X7535200Y3850000D01*
X7551300Y3854200D01*
X7564200Y3866900D01*
X7570600Y3886000D01*
Y3977000D01*
G01X7634200Y3955800D02*
X7643800Y3968500D01*
X7655100Y3974900D01*
X7668000Y3977000D01*
X7684100Y3972800D01*
X7695300Y3962200D01*
X7698500Y3949500D01*
X7696900Y3936800D01*
X7690500Y3926200D01*
X7658300Y3905000D01*
X7643800Y3890200D01*
X7634200Y3869000D01*
X7631000Y3850000D01*
X7698500D01*
G01X9627000Y3373000D02*
X9373000D01*
Y3881000D01*
X9627000D01*
Y3373000D01*
G01X9353100Y3725400D02*
X9361100Y3712700D01*
X9370800Y3704200D01*
X9382000Y3700000D01*
X9394900Y3704200D01*
X9404600Y3712700D01*
X9414200Y3725400D01*
X9417400Y3742300D01*
Y3827000D01*
G01X9484200Y3805800D02*
X9493800Y3818500D01*
X9505100Y3824900D01*
X9518000Y3827000D01*
X9534100Y3822800D01*
X9545300Y3812200D01*
X9548500Y3799500D01*
X9546900Y3786800D01*
X9540500Y3776200D01*
X9508300Y3755000D01*
X9493800Y3740200D01*
X9484200Y3719000D01*
X9481000Y3700000D01*
X9548500D01*
M02*
