G04 ================== begin FILE IDENTIFICATION RECORD ==================*
G04 Layout Name:  C:/Users/user/Desktop/work/»õ Æú´õ/allegro/CHOPPINGWAVE.brd*
G04 Film Name:    TOP*
G04 File Format:  Gerber RS274X*
G04 File Origin:  Cadence Allegro 17.2-P019*
G04 Origin Date:  Wed Jul 31 12:36:12 2019*
G04 *
G04 Layer:  ETCH/TOP*
G04 Layer:  PIN/TOP*
G04 Layer:  VIA CLASS/TOP*
G04 *
G04 Offset:    (0.000 0.000)*
G04 Mirror:    No*
G04 Mode:      Positive*
G04 Rotation:  0*
G04 FullContactRelief:  No*
G04 UndefLineWidth:     0.000*
G04 ================== end FILE IDENTIFICATION RECORD ====================*
%FSLAX25Y25*MOMM*%
%IR0*IPPOS*OFA0.00000B0.00000*MIA0B0*SFA1.00000B1.00000*%
%ADD11C,1.524*%
%ADD12C,1.651*%
%ADD13R,1.524X1.524*%
%ADD10C,.635*%
%ADD14C,1.*%
%ADD15C,.5*%
G75*
%LPD*%
G75*
G54D10*
X500000Y500000D03*
Y6500000D03*
X9500000Y500000D03*
Y6500000D03*
G54D11*
X500000Y2992000D03*
Y3246000D03*
Y3500000D03*
X1950000Y3762000D03*
X2100000Y1838000D03*
Y2092000D03*
Y2346000D03*
X2712000Y3000000D03*
X2458000D03*
X2204000D03*
X2712000Y3762000D03*
X2458000D03*
X2204000D03*
X2400000Y4654000D03*
Y4400000D03*
X2450000Y5654000D03*
Y5400000D03*
Y6254000D03*
Y6000000D03*
X2862000Y1838000D03*
Y2092000D03*
Y2346000D03*
Y2600000D03*
X3200000Y4096000D03*
Y4350000D03*
X4342000Y4200000D03*
X4850000D03*
X4596000Y4454000D03*
X4858000Y5450000D03*
X4604000Y5196000D03*
X4350000Y5450000D03*
X5350000Y3142000D03*
X5096000Y3396000D03*
X5350000Y3650000D03*
X7250000Y3188000D03*
Y3442000D03*
Y3696000D03*
X7438000Y1438000D03*
X7692000D03*
X7946000D03*
X7438000Y2200000D03*
X7692000D03*
X7946000D03*
X8012000Y3188000D03*
Y3442000D03*
Y3696000D03*
Y3950000D03*
X8200000Y1438000D03*
X9500000Y3754000D03*
Y3500000D03*
G54D12*
X784000Y4950000D03*
Y4600000D03*
Y5300000D03*
Y5700000D03*
Y6050000D03*
X1800000Y4950000D03*
Y4600000D03*
Y5300000D03*
Y5700000D03*
Y6050000D03*
X2400000Y1350000D03*
X3416000D03*
X3384000Y3350000D03*
X3450000Y5134000D03*
Y6150000D03*
X3850000Y1350000D03*
X4866000D03*
X4400000Y3350000D03*
X5500000Y1350000D03*
X5200000Y2200000D03*
X5300000Y5200000D03*
X6516000Y1350000D03*
X6216000Y2200000D03*
X6316000Y5200000D03*
X6800000D03*
X7816000D03*
G54D13*
X1950000Y3000000D03*
X2100000Y2600000D03*
X7250000Y3950000D03*
X8200000Y2200000D03*
G54D14*
G01X500000Y2992000D02*
X643600Y2848400D01*
X2560400D01*
X2712000Y3000000D01*
G01X500000Y3500000D02*
X1942000D01*
X2204000Y3762000D01*
G01X5350000Y3650000D02*
X2814500D01*
X2774900Y3610400D01*
X2355600D01*
X2204000Y3762000D01*
G01X2712000Y3000000D02*
X5208000D01*
X5350000Y3142000D01*
G01X7250000Y3188000D02*
X7111000D01*
X7086200Y3212800D01*
X6578300D01*
X6507500Y3142000D01*
X5350000D01*
G01Y3650000D02*
X6571000D01*
X7048500Y4127500D01*
X7583500D01*
X7683500Y4027500D01*
Y4024500D01*
X8012000Y3696000D01*
G54D15*
G01X1800000Y4950000D02*
X1885200Y4864800D01*
X1935200D01*
X2400000Y4400000D01*
G01X1800000Y5300000D02*
X2350000D01*
X2450000Y5400000D01*
G01X1800000Y5700000D02*
X2290000D01*
X2336000Y5654000D01*
X2450000D01*
G01X1800000Y6050000D02*
X2004000Y6254000D01*
X2450000D01*
G01X8012000Y3442000D02*
X7427500Y2857500D01*
X2921000D01*
X2409500Y2346000D01*
X2100000D01*
G01X3384000Y3350000D02*
X2554000D01*
X2204000Y3000000D01*
G01X3200000Y4096000D02*
X3080000D01*
X3048000Y4064000D01*
X2760000D01*
X2458000Y3762000D01*
G01X3200000Y4350000D02*
X2889000D01*
X2839000Y4400000D01*
X2400000D01*
G01X2450000Y6254000D02*
X2890000D01*
X2994000Y6150000D01*
X3450000D01*
G01X3200000Y4096000D02*
X4238000D01*
X4342000Y4200000D01*
G01X3416000Y1350000D02*
X3850000D01*
G01X4866000D02*
X5500000D01*
G01X4858000Y5450000D02*
X5050000D01*
X5300000Y5200000D01*
G01X7946000Y2200000D02*
X7460500Y1714500D01*
X5864500D01*
X5500000Y1350000D01*
G01X7250000Y3442000D02*
X7136000D01*
X7123000Y3429000D01*
X6667500D01*
X6634500Y3396000D01*
X5096000D01*
G01X6216000Y2200000D02*
X6574500Y1841500D01*
X7447500D01*
X7692000Y2086000D01*
Y2200000D01*
G01X6316000Y5200000D02*
X6800000D01*
G01X7692000Y1438000D02*
X7683500Y1429500D01*
Y1002500D01*
X7633500Y952500D01*
X6913500D01*
X6516000Y1350000D01*
M02*
